<svg xmlns="http://www.w3.org/2000/svg" xmlns:xlink="http://www.w3.org/1999/xlink" width="590" zoomAndPan="magnify" viewBox="0 0 443.03998 450.96" height="590" preserveAspectRatio="xMidYMid meet" version="1.2"><defs><clipPath id="41c9c6207a"><path d="M 1.726562 3.382812 L 441 3.382812 L 441 439.09375 L 1.726562 439.09375 Z M 1.726562 3.382812 "/></clipPath><clipPath id="429a31eb9d"><path d="M 87.964844 3.382812 L 355.304688 3.382812 C 402.933594 3.382812 441.542969 41.992188 441.542969 89.621094 L 441.542969 352.855469 C 441.542969 400.484375 402.933594 439.09375 355.304688 439.09375 L 87.964844 439.09375 C 40.335938 439.09375 1.726562 400.484375 1.726562 352.855469 L 1.726562 89.621094 C 1.726562 41.992188 40.335938 3.382812 87.964844 3.382812 Z M 87.964844 3.382812 "/></clipPath><clipPath id="09d5075074"><path d="M 15.273438 21.734375 L 427.628906 21.734375 L 427.628906 434.089844 L 15.273438 434.089844 Z M 15.273438 21.734375 "/></clipPath></defs><g id="6d3c8ca58b"><g clip-rule="nonzero" clip-path="url(#41c9c6207a)"><g clip-rule="nonzero" clip-path="url(#429a31eb9d)"><path style=" stroke:none;fill-rule:nonzero;fill:#000000;fill-opacity:1;" d="M 1.726562 3.382812 L 440.839844 3.382812 L 440.839844 439.09375 L 1.726562 439.09375 Z M 1.726562 3.382812 "/></g></g><g clip-rule="nonzero" clip-path="url(#09d5075074)"><path style=" stroke:none;fill-rule:evenodd;fill:#ffc700;fill-opacity:1;" d="M 221.453125 57.1875 C 315.675781 57.1875 392.175781 133.6875 392.175781 227.914062 C 392.175781 322.136719 315.675781 398.636719 221.453125 398.636719 C 127.226562 398.636719 50.726562 322.136719 50.726562 227.914062 C 50.726562 133.6875 127.226562 57.1875 221.453125 57.1875 Z M 221.453125 70.492188 C 134.566406 70.492188 64.03125 141.027344 64.03125 227.914062 C 64.03125 314.796875 134.566406 385.335938 221.453125 385.335938 C 308.335938 385.335938 378.875 314.796875 378.875 227.914062 C 378.875 141.027344 308.335938 70.492188 221.453125 70.492188 Z M 148.425781 349.085938 C 136.667969 342.296875 132.640625 327.261719 139.429688 315.503906 L 174.402344 254.925781 L 174.402344 208.589844 L 130.9375 165.125 C 126.328125 160.515625 123.738281 154.261719 123.738281 147.742188 C 123.738281 141.222656 126.328125 134.96875 130.9375 130.359375 C 140.539062 120.757812 156.105469 120.757812 165.707031 130.359375 L 206.101562 170.757812 L 236.800781 170.757812 L 277.199219 130.359375 C 286.800781 120.757812 302.367188 120.757812 311.964844 130.359375 C 316.574219 134.96875 319.167969 141.222656 319.167969 147.742188 C 319.167969 154.261719 316.578125 160.515625 311.964844 165.125 L 268.5 208.589844 L 268.5 254.925781 L 303.476562 315.503906 C 310.265625 327.261719 306.234375 342.296875 294.476562 349.085938 C 288.832031 352.347656 282.121094 353.230469 275.824219 351.542969 C 269.523438 349.855469 264.15625 345.734375 260.894531 340.089844 L 231.566406 289.289062 C 231.539062 289.238281 231.507812 289.191406 231.484375 289.140625 C 229.167969 284.90625 226.910156 281.605469 224.59375 279.386719 C 223.402344 278.242188 222.378906 277.335938 221.1875 277.292969 C 220.160156 277.257812 219.289062 278.023438 218.261719 278.992188 C 215.988281 281.128906 213.800781 284.460938 211.527344 288.9375 C 211.46875 289.054688 211.40625 289.171875 211.339844 289.289062 L 182.007812 340.089844 C 178.75 345.734375 173.378906 349.855469 167.082031 351.542969 C 160.785156 353.230469 154.074219 352.347656 148.425781 349.085938 C 149.550781 349.734375 148.425781 349.085938 148.425781 349.085938 Z M 287.085938 336.289062 C 291.777344 333.582031 293.382812 327.585938 290.675781 322.894531 L 254.710938 260.601562 C 254.0625 259.480469 253.722656 258.203125 253.722656 256.90625 L 253.722656 205.53125 C 253.722656 203.570312 254.5 201.691406 255.886719 200.304688 L 301.515625 154.675781 C 303.355469 152.835938 304.386719 150.34375 304.386719 147.742188 C 304.386719 145.144531 303.351562 142.648438 301.515625 140.8125 C 297.6875 136.984375 291.480469 136.980469 287.652344 140.808594 L 245.089844 183.371094 C 243.703125 184.757812 241.824219 185.535156 239.863281 185.535156 L 203.042969 185.535156 C 201.082031 185.535156 199.203125 184.757812 197.816406 183.371094 L 155.253906 140.808594 C 151.425781 136.980469 145.21875 136.984375 141.390625 140.8125 C 139.550781 142.648438 138.519531 145.144531 138.519531 147.742188 C 138.519531 150.34375 139.550781 152.835938 141.390625 154.675781 L 187.019531 200.304688 C 188.402344 201.691406 189.183594 203.570312 189.183594 205.53125 L 189.183594 256.90625 C 189.183594 258.203125 188.839844 259.480469 188.191406 260.601562 L 152.226562 322.894531 C 149.519531 327.585938 151.128906 333.582031 155.816406 336.289062 C 158.066406 337.585938 160.746094 337.941406 163.257812 337.265625 C 165.765625 336.59375 167.910156 334.953125 169.207031 332.699219 C 169.207031 332.699219 198.441406 282.066406 198.4375 282.074219 C 205.808594 267.636719 214.355469 262.261719 221.714844 262.523438 C 225.320312 262.652344 228.992188 263.980469 232.597656 266.785156 C 236.492188 269.816406 240.511719 274.863281 244.40625 281.96875 L 273.695312 332.699219 C 274.996094 334.953125 277.136719 336.59375 279.648438 337.265625 C 282.160156 337.941406 284.835938 337.585938 287.085938 336.289062 Z M 221.453125 95.863281 C 240.039062 95.863281 255.125 110.953125 255.125 129.535156 C 255.125 148.121094 240.039062 163.210938 221.453125 163.210938 C 202.867188 163.210938 187.777344 148.121094 187.777344 129.535156 C 187.777344 110.953125 202.867188 95.863281 221.453125 95.863281 Z M 221.453125 110.644531 C 211.023438 110.644531 202.558594 119.109375 202.558594 129.535156 C 202.558594 139.964844 211.023438 148.429688 221.453125 148.429688 C 231.878906 148.429688 240.347656 139.964844 240.347656 129.535156 C 240.347656 119.109375 231.878906 110.644531 221.453125 110.644531 Z M 214.800781 28.386719 C 214.800781 24.714844 217.78125 21.734375 221.453125 21.734375 C 225.121094 21.734375 228.101562 24.714844 228.101562 28.386719 L 228.101562 47.4375 C 228.101562 51.105469 225.121094 54.085938 221.453125 54.085938 C 217.78125 54.085938 214.800781 51.105469 214.800781 47.4375 Z M 315.457031 51.792969 C 317.292969 48.613281 321.363281 47.523438 324.542969 49.359375 C 327.71875 51.191406 328.8125 55.265625 326.976562 58.441406 L 317.449219 74.941406 C 315.617188 78.117188 311.542969 79.210938 308.367188 77.375 C 305.1875 75.539062 304.09375 71.46875 305.929688 68.289062 Z M 390.921875 122.390625 C 394.101562 120.554688 398.171875 121.644531 400.007812 124.824219 C 401.84375 128.003906 400.753906 132.074219 397.574219 133.910156 L 381.074219 143.433594 C 377.898438 145.269531 373.828125 144.179688 371.992188 141 C 370.15625 137.820312 371.246094 133.75 374.425781 131.914062 Z M 420.980469 221.261719 C 424.648438 221.261719 427.628906 224.242188 427.628906 227.914062 C 427.628906 231.582031 424.648438 234.5625 420.980469 234.5625 L 401.929688 234.5625 C 398.257812 234.5625 395.277344 231.582031 395.277344 227.914062 C 395.277344 224.242188 398.257812 221.261719 401.929688 221.261719 Z M 397.574219 321.917969 C 400.753906 323.75 401.84375 327.824219 400.007812 331.003906 C 398.171875 334.179688 394.101562 335.273438 390.921875 333.4375 L 374.425781 323.910156 C 371.246094 322.078125 370.15625 318.003906 371.992188 314.828125 C 373.828125 311.648438 377.898438 310.554688 381.074219 312.390625 Z M 326.976562 397.382812 C 328.8125 400.5625 327.71875 404.632812 324.542969 406.46875 C 321.363281 408.304688 317.292969 407.214844 315.457031 404.035156 L 305.929688 387.535156 C 304.09375 384.359375 305.1875 380.289062 308.367188 378.453125 C 311.542969 376.617188 315.617188 377.707031 317.449219 380.886719 Z M 228.101562 427.441406 C 228.101562 431.109375 225.121094 434.089844 221.453125 434.089844 C 217.78125 434.089844 214.800781 431.109375 214.800781 427.441406 L 214.800781 408.390625 C 214.800781 404.71875 217.78125 401.738281 221.453125 401.738281 C 225.121094 401.738281 228.101562 404.71875 228.101562 408.390625 Z M 127.449219 404.035156 C 125.613281 407.214844 121.542969 408.304688 118.363281 406.46875 C 115.183594 404.632812 114.09375 400.5625 115.929688 397.382812 L 125.453125 380.886719 C 127.289062 377.707031 131.359375 376.617188 134.539062 378.453125 C 137.71875 380.289062 138.808594 384.359375 136.972656 387.535156 Z M 51.980469 333.4375 C 48.804688 335.273438 44.730469 334.179688 42.898438 331.003906 C 41.0625 327.824219 42.152344 323.75 45.332031 321.917969 L 61.828125 312.390625 C 65.007812 310.554688 69.078125 311.648438 70.914062 314.828125 C 72.75 318.003906 71.65625 322.078125 68.480469 323.910156 Z M 21.925781 234.5625 C 18.253906 234.5625 15.273438 231.582031 15.273438 227.914062 C 15.273438 224.242188 18.253906 221.261719 21.925781 221.261719 L 40.976562 221.261719 C 44.644531 221.261719 47.625 224.242188 47.625 227.914062 C 47.625 231.582031 44.644531 234.5625 40.976562 234.5625 Z M 45.332031 133.910156 C 42.152344 132.074219 41.0625 128.003906 42.898438 124.824219 C 44.730469 121.644531 48.804688 120.554688 51.980469 122.390625 L 68.480469 131.914062 C 71.65625 133.75 72.75 137.820312 70.914062 141 C 69.078125 144.179688 65.007812 145.269531 61.828125 143.433594 Z M 115.929688 58.441406 C 114.09375 55.265625 115.183594 51.191406 118.363281 49.359375 C 121.542969 47.523438 125.613281 48.613281 127.449219 51.792969 L 136.972656 68.289062 C 138.808594 71.46875 137.71875 75.539062 134.539062 77.375 C 131.359375 79.210938 127.289062 78.117188 125.453125 74.941406 Z M 115.929688 58.441406 "/></g></g></svg>