<svg xmlns="http://www.w3.org/2000/svg" xmlns:xlink="http://www.w3.org/1999/xlink" width="590" zoomAndPan="magnify" viewBox="0 0 443.03998 450.96" height="590" preserveAspectRatio="xMidYMid meet" version="1.2"><defs><clipPath id="13b7ad5a5e"><path d="M 1.726562 5.804688 L 441.542969 5.804688 L 441.542969 436.675781 L 1.726562 436.675781 Z M 1.726562 5.804688 "/></clipPath><clipPath id="e0c9946875"><path d="M 87.964844 5.804688 L 356.167969 5.804688 C 403.796875 5.804688 442.40625 44.414062 442.40625 92.042969 L 442.40625 350.4375 C 442.40625 398.0625 403.796875 436.675781 356.167969 436.675781 L 87.964844 436.675781 C 40.335938 436.675781 1.726562 398.0625 1.726562 350.4375 L 1.726562 92.042969 C 1.726562 44.414062 40.335938 5.804688 87.964844 5.804688 Z M 87.964844 5.804688 "/></clipPath><clipPath id="b1f5c4a346"><path d="M 9.695312 11.898438 L 431.78125 11.898438 L 431.78125 433.984375 L 9.695312 433.984375 Z M 9.695312 11.898438 "/></clipPath></defs><g id="cce82920ad"><g clip-rule="nonzero" clip-path="url(#13b7ad5a5e)"><g clip-rule="nonzero" clip-path="url(#e0c9946875)"><path style=" stroke:none;fill-rule:nonzero;fill:#000000;fill-opacity:1;" d="M 1.726562 5.804688 L 442.695312 5.804688 L 442.695312 436.675781 L 1.726562 436.675781 Z M 1.726562 5.804688 "/></g></g><path style=" stroke:none;fill-rule:nonzero;fill:#00aeef;fill-opacity:1;" d="M 220.667969 199.796875 C 188.035156 199.796875 161.332031 173.097656 161.332031 140.460938 C 161.332031 107.828125 188.035156 81.125 220.667969 81.125 C 253.304688 81.125 280.003906 107.828125 280.003906 140.460938 C 280.003906 173.097656 253.304688 199.796875 220.667969 199.796875 Z M 220.667969 94.3125 C 195.285156 94.3125 174.519531 115.078125 174.519531 140.460938 C 174.519531 165.84375 195.285156 186.613281 220.667969 186.613281 C 246.050781 186.613281 266.820312 165.84375 266.820312 140.460938 C 266.820312 115.078125 246.050781 94.3125 220.667969 94.3125 Z M 220.667969 94.3125 "/><path style=" stroke:none;fill-rule:nonzero;fill:#00aeef;fill-opacity:1;" d="M 274.730469 361.324219 L 166.609375 361.324219 C 159.683594 361.324219 154.082031 355.71875 154.082031 348.796875 L 154.082031 315.503906 C 154.410156 278.914062 184.078125 249.242188 220.667969 249.242188 C 257.257812 249.242188 286.929688 278.914062 286.929688 315.503906 L 286.929688 348.796875 C 286.929688 355.71875 281.652344 361.324219 274.730469 361.324219 Z M 274.730469 361.324219 "/><g clip-rule="nonzero" clip-path="url(#b1f5c4a346)"><path style=" stroke:none;fill-rule:nonzero;fill:#ffffff;fill-opacity:1;" d="M 220.667969 11.898438 C 104.304688 11.898438 9.695312 106.507812 9.695312 222.871094 C 9.695312 339.238281 104.304688 433.84375 220.667969 433.84375 C 337.035156 433.84375 431.640625 339.238281 431.640625 222.871094 C 431.640625 106.507812 337.035156 11.898438 220.667969 11.898438 Z M 220.667969 420.660156 C 111.558594 420.660156 22.882812 331.984375 22.882812 222.871094 C 22.882812 113.761719 111.558594 25.085938 220.667969 25.085938 C 329.78125 25.085938 418.457031 113.761719 418.457031 222.871094 C 418.457031 331.984375 329.78125 420.660156 220.667969 420.660156 Z M 220.667969 420.660156 "/></g><path style=" stroke:none;fill-rule:nonzero;fill:#ffffff;fill-opacity:1;" d="M 266.160156 196.832031 C 261.875 200.128906 257.589844 203.09375 252.644531 205.402344 C 287.917969 218.585938 312.96875 252.539062 312.96875 292.097656 L 312.96875 344.839844 C 312.96875 348.46875 310.003906 351.433594 306.375 351.433594 L 134.960938 351.433594 C 131.335938 351.433594 128.367188 348.46875 128.367188 344.839844 L 128.367188 292.097656 C 128.367188 252.539062 153.421875 218.585938 188.695312 205.402344 C 183.75 203.09375 179.464844 200.128906 175.179688 196.832031 C 139.90625 213.972656 115.183594 250.234375 115.183594 292.097656 L 115.183594 344.839844 C 115.183594 355.71875 124.082031 364.621094 134.960938 364.621094 L 306.375 364.621094 C 317.253906 364.621094 326.15625 355.71875 326.15625 344.839844 L 326.15625 292.097656 C 326.15625 250.234375 301.433594 213.972656 266.160156 196.832031 Z M 266.160156 196.832031 "/></g></svg>